<svg width="42" height="46" viewBox="0 0 42 46" fill="none" xmlns="http://www.w3.org/2000/svg">
<mask id="mask0_1_38" style="mask-type:luminance" maskUnits="userSpaceOnUse" x="0" y="0" width="42" height="46">
<path d="M19.8316 32.3933L2.38876 43.2511V13.3066L21.1885 1.76461L39.9882 13.3066V43.2511L22.9917 32.6994C22.5275 32.1592 22.224 31.511 22.3846 30.7907C22.5632 29.9624 22.5096 28.3239 22.1883 25.857C21.8669 23.8943 22.0811 22.3818 22.831 21.3014C23.5808 20.239 24.9198 18.8886 26.8123 17.268C25.8482 18.0603 24.652 19.0326 23.188 20.167C21.7419 21.3014 21.1349 22.958 21.4027 25.1187C21.1528 24.4705 20.7243 23.8223 20.1173 23.1921C19.5102 22.5619 19.1175 21.3734 18.9032 19.6628C18.6354 21.7876 19.046 23.6062 20.1173 25.1187C21.0635 26.4692 20.9742 28.9001 19.8316 32.3933ZM21.2242 33.3476L41.3272 45.826V12.5684L21.1349 0L0.942627 12.5864V45.826L21.0456 33.3476C21.0992 33.3116 21.1706 33.3116 21.2242 33.3476Z" fill="white"/>
</mask>
<g mask="url(#mask0_1_38)">
<path d="M42.2195 -0.900391H0.0495605V46.7262H42.2195V-0.900391Z" fill="#F8F8F8"/>
</g>
</svg>
